<?xml version="1.0" standalone="no"?>
<!DOCTYPE svg PUBLIC "-//W3C//DTD SVG 20010904//EN"
 "http://www.w3.org/TR/2001/REC-SVG-20010904/DTD/svg10.dtd">
<svg version="1.0" xmlns="http://www.w3.org/2000/svg"
 width="794.000000pt" height="794.000000pt" viewBox="0 0 794.000000 794.000000"
 preserveAspectRatio="xMidYMid meet">
<metadata>
Created by potrace 1.14, written by Peter Selinger 2001-2017
</metadata>
<g transform="translate(0.000000,794.000000) scale(0.100000,-0.100000)"
fill="#000000" stroke="none">
<path d="M2166 6343 c-1 -1 -24 -5 -51 -8 -28 -4 -61 -8 -75 -11 -14 -2 -47
-6 -75 -10 -191 -21 -488 -116 -699 -221 -281 -141 -475 -294 -711 -563 -97
-110 -253 -355 -329 -515 -59 -124 -132 -323 -151 -414 -2 -9 -10 -47 -19 -86
-8 -38 -17 -90 -21 -115 -3 -25 -8 -56 -10 -70 -20 -129 -25 -403 -11 -535 7
-62 52 -334 60 -360 1 -5 8 -30 15 -55 78 -289 215 -572 389 -810 30 -41 58
-77 61 -80 3 -3 24 -27 46 -55 60 -76 241 -252 334 -325 197 -155 443 -293
666 -375 113 -42 331 -99 420 -110 33 -4 71 -9 85 -11 14 -1 59 -6 100 -9 41
-4 91 -8 110 -11 48 -5 229 -6 238 -1 4 3 36 8 72 11 218 21 502 97 553 147
54 55 23 146 -59 170 -26 8 -84 -2 -204 -33 -52 -14 -111 -29 -130 -32 -19 -3
-46 -8 -59 -11 -13 -2 -46 -7 -75 -10 -28 -4 -64 -8 -81 -10 -100 -13 -387 -1
-495 20 -14 3 -41 8 -60 11 -301 52 -651 212 -915 419 -215 169 -398 380 -541
625 -75 128 -124 233 -175 376 -31 89 -84 284 -93 349 -4 23 -8 50 -10 60 -41
220 -22 596 44 856 92 361 281 698 539 959 127 129 202 191 340 282 142 94
388 211 511 244 175 46 243 59 415 79 62 7 315 8 370 1 22 -3 63 -8 90 -11
147 -17 410 -85 520 -134 132 -59 270 -133 360 -193 113 -76 130 -88 223 -172
30 -26 68 -60 85 -75 60 -52 230 -258 291 -351 34 -52 88 -140 118 -195 31
-55 68 -111 81 -123 52 -49 132 -43 176 14 44 56 21 125 -119 345 -191 301
-441 562 -705 733 -193 127 -355 204 -579 278 -126 41 -345 91 -454 103 -35 4
-80 9 -100 12 -37 4 -302 10 -306 6z"/>
<path d="M7292 5440 c-18 -4 -41 -15 -52 -25 -40 -36 -47 -86 -49 -390 -1
-159 -5 -292 -7 -295 -3 -2 -96 -5 -208 -5 -193 -1 -204 -2 -234 -24 -69 -49
-61 -149 14 -184 29 -14 68 -17 232 -17 l197 0 -1 -82 c-14 -730 -21 -1238
-29 -2090 -6 -628 -8 -611 57 -644 40 -21 102 -13 133 16 34 32 42 81 45 272
1 95 3 279 5 408 11 732 15 1011 20 1535 4 319 8 581 9 582 1 1 93 3 205 3
112 1 216 6 230 11 14 6 39 22 54 37 24 23 27 32 23 70 -10 93 -42 105 -281
108 -104 1 -197 2 -206 3 -15 1 -17 32 -17 310 -1 169 -6 319 -11 332 -19 50
-75 80 -129 69z"/>
<path d="M4362 4515 c-212 -98 -141 -405 94 -405 96 0 178 54 210 136 24 62
14 145 -23 198 -57 81 -188 114 -281 71z"/>
<path d="M6463 4499 c-108 -20 -192 -114 -187 -209 1 -14 2 -34 3 -46 2 -35
58 -109 100 -132 62 -35 102 -42 171 -30 131 24 214 168 161 281 -23 49 -46
77 -83 101 -42 27 -117 43 -165 35z"/>
<path d="M4428 3993 c-36 -6 -74 -45 -85 -91 -15 -58 -23 -2056 -8 -2120 17
-79 124 -110 186 -54 27 24 32 37 38 92 3 36 6 525 6 1087 l0 1023 -30 29
c-32 30 -62 40 -107 34z"/>
<path d="M6438 3945 c-59 -33 -60 -39 -63 -489 -5 -770 -6 -1681 -1 -1703 16
-71 86 -104 163 -76 61 22 65 43 70 372 6 468 9 1678 3 1768 -4 72 -8 86 -31
109 -33 33 -101 42 -141 19z"/>
<path d="M5638 3939 c-114 -12 -238 -61 -356 -142 -24 -16 -46 -27 -48 -24 -3
3 -8 20 -11 39 -11 72 -57 112 -125 110 -38 -1 -78 -29 -96 -66 -10 -20 -14
-109 -17 -349 -4 -316 -15 -1277 -19 -1552 -2 -178 0 -189 39 -231 27 -28 40
-34 73 -34 58 0 88 17 110 61 17 35 19 67 21 346 6 982 10 1234 20 1270 19 70
99 173 188 241 118 91 316 135 391 86 49 -32 82 -92 82 -151 0 -43 21 -92 50
-118 16 -15 36 -20 71 -19 88 1 126 63 115 185 -20 231 -222 375 -488 348z"/>
</g>
</svg>
